<svg width="290" height="330" viewBox="0 0 290 330" fill="none" xmlns="http://www.w3.org/2000/svg">
<path d="M180.164 75.0614C195.448 105.111 208.325 117.812 226.226 132.888C244.127 147.861 267.054 165.312 279.825 189.992C292.702 214.671 295.528 246.682 275.428 258.041C255.433 269.297 212.407 260.003 184.351 274.563C156.191 289.226 143 327.846 128.449 329.911C114.002 331.976 98.2991 297.59 82.1774 276.112C65.9511 254.737 49.3059 246.269 52.2371 232.948C55.1684 219.524 77.7806 201.041 64.5901 175.225C51.3997 149.306 2.6158 115.85 0.103331 103.252C-2.40914 90.5506 41.4545 98.605 70.7666 76.6103C100.079 54.5123 114.84 2.46843 131.066 0.0934159C147.292 -2.38486 164.984 45.0122 180.164 75.0614Z" fill="#BB004B"/>
</svg>
