<svg width="340" height="339" viewBox="0 0 340 339" fill="none" xmlns="http://www.w3.org/2000/svg">
<path d="M273.383 0.201244C305.883 -2.19876 337.983 17.1012 339.083 45.6012C340.183 74.0012 310.283 111.501 289.983 137.301C269.683 163.101 258.983 177.101 259.683 208.601C260.383 240.101 272.283 288.901 260.083 313.901C247.983 338.901 211.583 339.901 176.183 338.301C140.783 336.801 106.283 332.501 85.1834 312.701C64.1834 292.801 56.4834 257.401 42.0834 227.501C27.6834 197.701 6.48339 173.301 1.28339 146.001C-3.91661 118.701 6.88339 88.3012 30.0834 73.6012C53.1834 58.9012 88.7834 59.8012 114.983 58.6012C141.283 57.4012 158.283 54.2012 183.183 40.5012C208.083 26.8012 240.983 2.60124 273.383 0.201244Z" fill="#BB004B"/>
</svg>
