<svg width="336" height="306" viewBox="0 0 336 306" fill="none" xmlns="http://www.w3.org/2000/svg">
<path d="M222.952 4.51866C247.252 12.1187 269.052 31.5187 292.852 57.6187C316.652 83.7187 342.352 116.519 333.652 141.119C325.052 165.719 282.052 182.119 254.752 210.019C227.352 238.019 215.652 277.419 191.052 294.419C166.452 311.419 129.052 306.019 91.9519 296.419C54.8519 286.819 18.0519 273.119 5.65188 245.719C-6.84812 218.219 4.85188 177.019 7.85188 142.219C10.7519 107.319 4.85188 78.9187 14.3519 57.3187C23.9519 35.7187 48.9519 21.0187 73.3519 13.4187C97.7519 5.81867 121.552 5.31866 146.752 3.01866C172.052 0.818664 198.652 -3.18134 222.952 4.51866Z" fill="#BB004B"/>
</svg>
